<svg xmlns="http://www.w3.org/2000/svg" width="385.7488" height="209.3835" viewBox="0 0 385.7488 209.3835"><defs><style>.cls-1{opacity:0.5;}.cls-2{fill:none;stroke:#414042;stroke-miterlimit:10;stroke-width:2px;stroke-dasharray:12 12;}.cls-3{fill:#414042;}</style></defs><g id="Layer_2" data-name="Layer 2"><g id="Layer_1-2" data-name="Layer 1"><g class="cls-1"><path class="cls-2" d="M8.226,35.5673C55.3819-1.0647,79.0114-2.7522,91.8919,4.2824c28.0637,15.3267,2.3311,70.545,36.4865,102.7027,37.3425,35.1583,102.5895,1.6248,135.1351,41.8919,9.6291,11.9136,12.485,25.4488,13.5135,33.7838"/><polygon class="cls-3" points="1.964 25.054 17.065 44.088 0 42.12 1.964 25.054"/></g><g class="cls-1"><path class="cls-3" d="M170.85,208.4109a1.0887,1.0887,0,0,1-.9961-.68,19.7966,19.7966,0,0,0-1.84-2.8008l-2.0742-2.8242q-.68.5391-2.1094,1.5117-.1288,1.8164-.1289,3.5391a1.1686,1.1686,0,0,1-.3222.8554,1.108,1.108,0,0,1-.8262.3282q-1.1836,0-1.1836-1.5938,0-.9726.1348-2.9121t.1347-2.9121q0-1.7812.0528-4.0723t.0527-4.0488q0-.5274-.0527-1.2422t-.0528-1.2422a1.1687,1.1687,0,0,1,.3223-.8555,1.2042,1.2042,0,0,1,1.6523,0,1.1687,1.1687,0,0,1,.3223.8555q0,.5391.0586,1.2715t.0586,1.2715l-.082,3.7734q-.0587,2.0391-.0352,4.0781a32.6832,32.6832,0,0,0,3.07-2.6718l2.5781-2.66a1.1806,1.1806,0,0,1,2.0274.8086,1.19,1.19,0,0,1-.34.7852,42.0892,42.0892,0,0,1-3.5507,3.6211l2.5546,3.48q1.7931,2.4492,1.793,3.1875a1.0628,1.0628,0,0,1-.3691.8086A1.2175,1.2175,0,0,1,170.85,208.4109Z"/><path class="cls-3" d="M183.0374,208.7624q-1.0078,0-1.1368-1.1015l-.3281-2.5664a21.6673,21.6673,0,0,1-.164-2.5664q0-.3282.041-1.1133t.041-1.1133q0-2.5312-.9375-2.5313a3.2771,3.2771,0,0,0-2.5078,1.5586,10.6164,10.6164,0,0,0-1.6875,3.586q-.0235.457-.1055,1.1484a9.5357,9.5357,0,0,0-.07,1.1367q0,.3516.07,1.0547t.07,1.0547a1.1689,1.1689,0,0,1-.3222.8555,1.2117,1.2117,0,0,1-1.6583,0,1.1811,1.1811,0,0,1-.3164-.8555q0-.3516-.0761-1.0547t-.0762-1.0547q0-1.2071.17-3.3457t.17-3.3457q0-.375-.041-1.1133t-.041-1.1132a1.0976,1.0976,0,0,1,.334-.8262,1.1434,1.1434,0,0,1,.8262-.3223q1.078,0,1.1836,1.5235l.0351,1.3711q1.9688-2.625,4.043-2.625a2.6352,2.6352,0,0,1,2.6133,1.6523,8.61,8.61,0,0,1,.5507,3.2578v1.1836l-.0117,1.09a16.2438,16.2438,0,0,0,.252,2.5137,16.203,16.203,0,0,1,.2519,2.502,1.1125,1.1125,0,0,1-.3339.8379A1.1587,1.1587,0,0,1,183.0374,208.7624Z"/><path class="cls-3" d="M191.0061,208.6218a4.5677,4.5677,0,0,1-3.3867-1.4531,6.2323,6.2323,0,0,1-1.6641-4.3477,7.5811,7.5811,0,0,1,1.336-4.664,5.2443,5.2443,0,0,1,4.57-2.3789,3.8523,3.8523,0,0,1,3.5508,2.1445,8.2344,8.2344,0,0,1,.9257,4.1719,7.5828,7.5828,0,0,1-1.3593,4.4414A4.6656,4.6656,0,0,1,191.0061,208.6218Zm.7031-10.4648a2.9466,2.9466,0,0,0-2.6836,1.6406,5.9537,5.9537,0,0,0-.7617,3.0234,3.6333,3.6333,0,0,0,.9258,2.6485,2.4686,2.4686,0,0,0,1.8164.7851,2.8452,2.8452,0,0,0,2.0977-.8906,3.7675,3.7675,0,0,0,1.0547-2.66Q194.3225,198.1687,191.7092,198.157Z"/><path class="cls-3" d="M213.26,197.4421q-.9141,3.82-2.3906,8.6367a8.2932,8.2932,0,0,1-1.09,2.1914,1.244,1.244,0,0,1-1.1132.6094q-1.2774-.0234-1.9922-3.1758-.2345-1.0077-.4805-2.7422l-.3867-2.6132-.9609,2.2382-1.7813,4.84a1.44,1.44,0,0,1-.4453.68,1.2256,1.2256,0,0,1-1.125.7031q-.8907.0351-1.7227-3.4922-.4218-1.8164-.8437-4.9219l-.2813-1.7578a12.7586,12.7586,0,0,1-.1523-1.77,1.0658,1.0658,0,0,1,.3457-.8145,1.1846,1.1846,0,0,1,.8379-.3222,1.0618,1.0618,0,0,1,1.1015.9726,14.1559,14.1559,0,0,1,.2461,1.711l.1758,1.7226.6914,5.2617q1.3008-3.6093,2.6953-8.32.3869-1.3008,1.3477-1.3007.9258,0,1.2539,1.4531.3047,1.371.7617,4.2187.4688,2.9532.8321,4.6055l.8554-3.1875,1.5117-6.3867a.9119.9119,0,0,1,1.0079-.7149,1.2228,1.2228,0,0,1,.8554.334,1.0525,1.0525,0,0,1,.3633.8028A5.1706,5.1706,0,0,1,213.26,197.4421Z"/><path class="cls-3" d="M237.7058,208.9031a1.0538,1.0538,0,0,1-1.125-1.02q-.2109-1.2891-.4219-3.6328l-.3984-3.6328a7.9542,7.9542,0,0,0-.3984-1.582q-.3986-1.0548-.8672-1.0547a4.1008,4.1008,0,0,0-1.6172.7383,6.6651,6.6651,0,0,0-1.4766,1.09q-.0117,1.1016.0586,2.2031l.3516,3.1289a26.548,26.548,0,0,1,.2226,3.0586,1.1735,1.1735,0,0,1-.3222.85,1.1889,1.1889,0,0,1-1.6524,0,1.1735,1.1735,0,0,1-.3222-.85q0-1.418-.2871-4.1894t-.2872-4.19a4.3381,4.3381,0,0,0-.3515-1.9336,5.8549,5.8549,0,0,0-1.6641,1.2188l-1.3828,1.5469a7.0829,7.0829,0,0,1-.5976.7382q0,.7032-.129,2.0743t-.1289,2.0273a6.09,6.09,0,0,0,.1114.9844,6.0015,6.0015,0,0,1,.1113.914,1.0543,1.0543,0,0,1-.3574.8086,1.1991,1.1991,0,0,1-.8379.3282q-1.3242,0-1.3242-3.0118,0-.7031.1289-2.0976t.1289-2.0977q0-.621-.1113-1.8633t-.1114-1.875q0-2.66,1.1953-2.66a1.1425,1.1425,0,0,1,.8379.3984,1.2346,1.2346,0,0,1,.3809.8672,6.1907,6.1907,0,0,1-.0586.6914,6.2344,6.2344,0,0,0-.0586.7149l.0234,1.23a7.0407,7.0407,0,0,1,1.793-2.2676,3.4044,3.4044,0,0,1,2.0156-1.0136,2.5311,2.5311,0,0,1,2.5313,1.8281,4.1783,4.1783,0,0,1,1.5351-1.2832,4.6543,4.6543,0,0,1,2.0391-.4277,2.6878,2.6878,0,0,1,2.6719,2.1093,30.6151,30.6151,0,0,1,.48,3.293q.3282,2.0157.8438,6.7149a.9448.9448,0,0,1-.3164.7968A1.2078,1.2078,0,0,1,237.7058,208.9031Z"/><path class="cls-3" d="M245.8621,208.6218a4.5681,4.5681,0,0,1-3.3868-1.4531,6.2326,6.2326,0,0,1-1.664-4.3477,7.58,7.58,0,0,1,1.3359-4.664,5.2444,5.2444,0,0,1,4.57-2.3789,3.8523,3.8523,0,0,1,3.5508,2.1445,8.2354,8.2354,0,0,1,.9258,4.1719,7.5829,7.5829,0,0,1-1.3594,4.4414A4.6655,4.6655,0,0,1,245.8621,208.6218Zm.7031-10.4648a2.9465,2.9465,0,0,0-2.6836,1.6406,5.9537,5.9537,0,0,0-.7617,3.0234,3.6333,3.6333,0,0,0,.9258,2.6485,2.4686,2.4686,0,0,0,1.8164.7851,2.8448,2.8448,0,0,0,2.0976-.8906,3.7671,3.7671,0,0,0,1.0547-2.66Q249.1785,198.1687,246.5652,198.157Z"/><path class="cls-3" d="M263.2058,199.27q-.0821,1.4649-1.1719,1.4649-1.0077,0-1.0078-1.16,0-.2226-.0351-.82l-.0352-.9844a6.1709,6.1709,0,0,0-2.9648,1.043,5.6135,5.6135,0,0,0-1.7344,2.2969l.0234,6.4219a1.0359,1.0359,0,0,1-1.16,1.1836q-1.0312,0-1.0313-1.1836v-8.2266q0-.3867.0293-1.16t.0293-1.16q0-1.1836,1.0313-1.1836,1.1484,0,1.16,1.9453a7.044,7.044,0,0,1,4.9922-2.168,1.5807,1.5807,0,0,1,1.418.7149,3.9787,3.9787,0,0,1,.4687,2.1562Q263.2175,199.0594,263.2058,199.27Z"/><path class="cls-3" d="M271.0925,208.47a6.6175,6.6175,0,0,1-4.289-1.3243,5,5,0,0,1-1.793-4.1015,8.5508,8.5508,0,0,1,1.4766-5.1094,5.0155,5.0155,0,0,1,4.289-2.25,6.7272,6.7272,0,0,1,3.1758.6563,2.6447,2.6447,0,0,1,1.5117,2.4843,2.6793,2.6793,0,0,1-1.3242,2.1328,18.6852,18.6852,0,0,1-2.4844,1.3125l-4.4765,2.1211a4.275,4.275,0,0,0,1.6347,1.4649,5.01,5.01,0,0,0,2.2793.4922,7.1951,7.1951,0,0,0,1.8985-.3047,3.0138,3.0138,0,0,0,1.7812-1.0137q.3984-.627.8555-.6269a1.0277,1.0277,0,0,1,.7324.3105.9718.9718,0,0,1,.3223.7207q0,1.3008-2.0977,2.2383A8.5689,8.5689,0,0,1,271.0925,208.47Zm-.3164-10.6758a3.0036,3.0036,0,0,0-2.3789,1.1074,7.4693,7.4693,0,0,0-1.4179,3.334l3.5976-1.711a15.4462,15.4462,0,0,0,3.0234-1.7929A3.9887,3.9887,0,0,0,270.7761,197.7937Z"/><path class="cls-3" d="M295.0925,208.7038q-.2226,0-.8086-.5156a5.25,5.25,0,0,1-.7851-.8555,15.0568,15.0568,0,0,1-1.9805.92,4.3627,4.3627,0,0,1-1.43.31,4.8456,4.8456,0,0,1-3.9961-1.5469,6.972,6.972,0,0,1-1.1836-4.4531,6.725,6.725,0,0,1,1.9512-4.8516,6.2593,6.2593,0,0,1,4.6582-2.0156,6.0206,6.0206,0,0,1,2.2852.5274q1.5938.6563,1.5937,1.582a.7929.7929,0,0,1-.2344.5625,8.5588,8.5588,0,0,0-.1816,1.4648q-.0645,1.02-.0762,2.6133a9.5567,9.5567,0,0,0,.1993,2.2969,17.6554,17.6554,0,0,0,.7382,2.0625q.0821.2109.27.6211l.07.1992a1.01,1.01,0,0,1-.3281.7734A1.085,1.085,0,0,1,295.0925,208.7038Zm-2.4375-8.1445a10.1608,10.1608,0,0,1,.0645-1.0957q.0645-.5918.1933-1.26a5.6959,5.6959,0,0,0-.7441-.3281,1.6458,1.6458,0,0,0-.498-.1055,4.0629,4.0629,0,0,0-3.1348,1.4825,5.6072,5.6072,0,0,0-.6387,6.2988,2.333,2.333,0,0,0,2.0391.9609,4.0838,4.0838,0,0,0,1.91-.41,7.02,7.02,0,0,0,1.1836-.8907A42.5914,42.5914,0,0,1,292.655,200.5593Z"/><path class="cls-3" d="M303.6941,208.4226a7.4316,7.4316,0,0,1-3.2578-.7031,1.0853,1.0853,0,0,1-.9141.5625,1.0287,1.0287,0,0,1-.7558-.3106,1.0567,1.0567,0,0,1-.3106-.7793q0-.3047.0293-.9023t.0293-.9024q0-1.2422-.0644-3.7207t-.0645-3.7207q0-.8554.0117-3.24t.0117-3.252a2.6987,2.6987,0,0,1,.293-1.2656,1.18,1.18,0,0,1,1.0664-.7148q.879,0,.8789,1.0195a2.8723,2.8723,0,0,1-.0586.4805,2.8822,2.8822,0,0,0-.0586.48l-.0351,2.5664-.0235,2.9883a9.3837,9.3837,0,0,1,1.94-1.0371,4.9253,4.9253,0,0,1,1.7285-.3457,5.02,5.02,0,0,1,4.09,1.9336,6.8492,6.8492,0,0,1,1.4765,4.4648,6.4377,6.4377,0,0,1-1.7226,4.5352A5.602,5.602,0,0,1,303.6941,208.4226Zm.4453-10.582a4.1589,4.1589,0,0,0-1.9687.539,17.5163,17.5163,0,0,0-1.6875,1.16l-.0235,2.0273.0117,1.8281.0118,1.9219q.5625.2578,1.582.6563a5.5507,5.5507,0,0,0,1.6289.2226,3.6057,3.6057,0,0,0,2.7891-1.1953,4.2521,4.2521,0,0,0,1.09-2.9766,4.7261,4.7261,0,0,0-.8789-2.9179A3.0292,3.0292,0,0,0,304.1394,197.8406Z"/><path class="cls-3" d="M316.8543,208.6218a4.5679,4.5679,0,0,1-3.3868-1.4531,6.2322,6.2322,0,0,1-1.664-4.3477,7.58,7.58,0,0,1,1.3359-4.664,5.2444,5.2444,0,0,1,4.57-2.3789,3.8523,3.8523,0,0,1,3.5508,2.1445,8.2354,8.2354,0,0,1,.9258,4.1719,7.5836,7.5836,0,0,1-1.3594,4.4414A4.6655,4.6655,0,0,1,316.8543,208.6218Zm.7031-10.4648a2.9464,2.9464,0,0,0-2.6836,1.6406,5.9537,5.9537,0,0,0-.7617,3.0234,3.6337,3.6337,0,0,0,.9257,2.6485,2.4688,2.4688,0,0,0,1.8165.7851,2.8448,2.8448,0,0,0,2.0976-.8906,3.7671,3.7671,0,0,0,1.0547-2.66Q320.1707,198.1687,317.5574,198.157Z"/><path class="cls-3" d="M334.6433,201.0866q0,.8438.0117,2.5313t.0118,2.5312q0,.2578.041.7852t.041.7852a1.088,1.088,0,0,1-.34.8261,1.1635,1.1635,0,0,1-.832.3223q-.9024,0-1.1484-1.1133a7.2117,7.2117,0,0,1-3.375.7617,4.4515,4.4515,0,0,1-2.543-.68,3.0405,3.0405,0,0,1-1.3242-2.1914,38.4391,38.4391,0,0,1-.457-5.5312,21.8939,21.8939,0,0,1,.3515-3.6563,1.0482,1.0482,0,0,1,1.1133-1.0195,1.1784,1.1784,0,0,1,.8437.3223,1.088,1.088,0,0,1,.34.8261,13.6552,13.6552,0,0,1-.17,1.7227,13.7679,13.7679,0,0,0-.17,1.8047q0,1.9571.129,3.3516a11.5542,11.5542,0,0,0,.3867,2.2382,3.9251,3.9251,0,0,0,.7617.3223,2.5861,2.5861,0,0,0,.7383.1113,11.9664,11.9664,0,0,0,3.3164-.5039l-.0117-2.3789-.0235-2.2734a37.5994,37.5994,0,0,1,.2227-4.3946,1.0575,1.0575,0,0,1,1.1367-1.0781,1.1672,1.1672,0,0,1,.8437.3281,1.021,1.021,0,0,1,.3165.82Z"/><path class="cls-3" d="M345.4011,197.946q-.246,0-.58-.0234t-.58-.0235q-.27,0-1.5938.1758l.2227,6.9258.0117.5156.0117.5977q.0469,2.5664-1.2305,2.5664a1.1921,1.1921,0,0,1-.8144-.3047.9732.9732,0,0,1-.3457-.7617q0-.4453.0351-1.3359t.0352-1.336l-.2344-6.8437q-.8554-.0352-2.6015-.1993a1.0629,1.0629,0,0,1-1.043-1.16,1.2067,1.2067,0,0,1,.3164-.8555,1.0561,1.0561,0,0,1,.8086-.34l2.4609.1992q0-.5976-.0527-1.6t-.0527-1.4473a1.0742,1.0742,0,0,1,.34-.8144,1.1637,1.1637,0,0,1,.832-.3223q1.0548,0,1.2305,1.7227.0351.4335.0352,1.0429l-.0235.68-.0117.7266q1.4532-.1875,1.6641-.1875a6.6792,6.6792,0,0,1,1.5937.1172,1.0291,1.0291,0,0,1,.7149,1.1015,1.1736,1.1736,0,0,1-.3223.85A1.0976,1.0976,0,0,1,345.4011,197.946Z"/><path class="cls-3" d="M370.9246,208.9031a1.0537,1.0537,0,0,1-1.125-1.02q-.211-1.2891-.4219-3.6328l-.3984-3.6328a7.9613,7.9613,0,0,0-.3985-1.582q-.3984-1.0548-.8672-1.0547a4.1014,4.1014,0,0,0-1.6172.7383,6.6638,6.6638,0,0,0-1.4765,1.09q-.0117,1.1016.0586,2.2031l.3515,3.1289a26.5287,26.5287,0,0,1,.2227,3.0586,1.1731,1.1731,0,0,1-.3223.85,1.1887,1.1887,0,0,1-1.6523,0,1.1731,1.1731,0,0,1-.3223-.85q0-1.418-.2871-4.1894t-.2871-4.19a4.338,4.338,0,0,0-.3516-1.9336,5.8559,5.8559,0,0,0-1.664,1.2188l-1.3828,1.5469a7.0864,7.0864,0,0,1-.5977.7382q0,.7032-.1289,2.0743t-.1289,2.0273a6.0872,6.0872,0,0,0,.1113.9844,6.0015,6.0015,0,0,1,.1113.914,1.0543,1.0543,0,0,1-.3574.8086,1.1991,1.1991,0,0,1-.8379.3282q-1.3242,0-1.3242-3.0118,0-.7031.1289-2.0976t.1289-2.0977q0-.621-.1113-1.8633t-.1113-1.875q0-2.66,1.1953-2.66a1.1425,1.1425,0,0,1,.8379.3984,1.2344,1.2344,0,0,1,.3808.8672,6.1907,6.1907,0,0,1-.0586.6914,6.2576,6.2576,0,0,0-.0586.7149l.0235,1.23a7.0393,7.0393,0,0,1,1.793-2.2676,3.4041,3.4041,0,0,1,2.0156-1.0136,2.531,2.531,0,0,1,2.5312,1.8281,4.1778,4.1778,0,0,1,1.5352-1.2832,4.6536,4.6536,0,0,1,2.039-.4277,2.6878,2.6878,0,0,1,2.6719,2.1093,30.6012,30.6012,0,0,1,.4805,3.293q.3281,2.0157.8437,6.7149a.9445.9445,0,0,1-.3164.7968A1.2075,1.2075,0,0,1,370.9246,208.9031Z"/><path class="cls-3" d="M380.1589,208.47a6.6175,6.6175,0,0,1-4.289-1.3243,5,5,0,0,1-1.793-4.1015,8.5508,8.5508,0,0,1,1.4766-5.1094,5.0155,5.0155,0,0,1,4.289-2.25,6.7272,6.7272,0,0,1,3.1758.6563,2.6447,2.6447,0,0,1,1.5117,2.4843,2.6793,2.6793,0,0,1-1.3242,2.1328,18.6852,18.6852,0,0,1-2.4844,1.3125l-4.4765,2.1211a4.275,4.275,0,0,0,1.6347,1.4649,5.0106,5.0106,0,0,0,2.2793.4922,7.1951,7.1951,0,0,0,1.8985-.3047,3.0135,3.0135,0,0,0,1.7812-1.0137q.3986-.627.8555-.6269a1.0277,1.0277,0,0,1,.7324.3105.9718.9718,0,0,1,.3223.7207q0,1.3008-2.0977,2.2383A8.5685,8.5685,0,0,1,380.1589,208.47Zm-.3164-10.6758a3.0036,3.0036,0,0,0-2.3789,1.1074,7.4693,7.4693,0,0,0-1.4179,3.334l3.5976-1.711a15.4508,15.4508,0,0,0,3.0235-1.7929A3.9892,3.9892,0,0,0,379.8425,197.7937Z"/></g></g></g></svg>