<svg xmlns="http://www.w3.org/2000/svg" width="239.8867" height="62.5679" viewBox="0 0 239.8867 62.5679">
    <defs>
        <style>
            .sign-word {
                fill: #48629B;
                stroke: #48629B;
            }

            .sign-word,
            .sign-bracket {
                stroke-miterlimit: 10;
            }

            .sign-bracket {
                fill: #58595b;
                stroke: #58595b;
            }
        </style>
    </defs>
    <g id="Layer_2" data-name="Layer 2">
        <g id="Layer_1-2" data-name="Layer 1">
            <path id="sign-word" class="sign-word"
                d="M73.9409,50.8882q-2.075,0-6.2226-.211t-6.2227-.2109q-2.9531,0-8.8242-.07t-8.8242-.07q-1.2657,0-1.4414-.8086a66.44,66.44,0,0,0-.7032-6.68,18.3522,18.3522,0,0,1-.4218-1.9336q0-.1758,8.6132-13.623T58.5073,12.814q0-.5617-.914-.5625-2.461,0-7.4356.1406t-7.4707.1406q-.7734,0-.7734-.8086a30.7211,30.7211,0,0,1,.791-5.0625,30.1267,30.1267,0,0,0,.791-5.4492q0-.5617.9492-.5625,4.8516,0,14.5723.2109t14.5723.211a.93.93,0,0,1,.9492.8086,38.9811,38.9811,0,0,1,.6328,8.0508,3.0763,3.0763,0,0,1-.6328,1.582q-2.2149,3.1992-9.3164,14.1328-8.0867,12.48-8.086,13.0781,0,.282.5977.2813,7.1367,0,10.9687-.2813.7728-.0343,3.375-.4219a23.305,23.305,0,0,1,3.27-.3515q.4921,0,.4922.7383a64.7156,64.7156,0,0,1-1.02,11.4257A.8245.8245,0,0,1,73.9409,50.8882Z" />
            <path id="sign-word-2" data-name="sign-word" class="sign-word"
                d="M93.91,34.189q0,2.5664.1054,7.6464t.1055,7.6114q0,.7383-.8789.8789a40.8638,40.8638,0,0,1-5.3789.2109,41.2813,41.2813,0,0,1-5.4141-.2109q-.7734-.14-.9492-.457a3.9792,3.9792,0,0,1-.07-1.0547q0-2.4258.1055-7.295t.1054-7.33a128.4982,128.4982,0,0,0-.7734-15.8907c-.0474-.3745-.07-.6206-.07-.7382q0-.7032.9492-.7032.9837,0,3.0059.211t3.041.2109q1.02,0,3.0586-.1758t3.0586-.1758q.8438,0,.8437.7032,0,.1405-.07.6679A143.5282,143.5282,0,0,0,93.91,34.189Zm.914-26.1211q0,6.1172-6.8906,6.1172a7.5725,7.5725,0,0,1-4.8867-1.5469,5.5434,5.5434,0,0,1-2.1094-4.57,5.5264,5.5264,0,0,1,2.18-4.5,7.43,7.43,0,0,1,4.8164-1.6172A7.2271,7.2271,0,0,1,92.6792,3.603,5.5281,5.5281,0,0,1,94.8237,8.0679Z" />
            <path id="sign-word-3" data-name="sign-word" class="sign-word"
                d="M135.2183,25.2593q0,6.821-.4219,8.2969-.5274,1.7585-7.6992,12.7265-1.1257,1.7227-5.8008,7.98-5.168,6.89-5.8711,7.2773-.8437.5274-10.793.5274a4.0409,4.0409,0,0,1-2.039-.3516q-.457-1.4421-1.16-3.41-.5625-1.2312-1.125-2.4961A8.0218,8.0218,0,0,1,99.5,53.3843q0-.668.5977-.668,9.7734,0,9.7734-4.4648,0-.3867-4.7812-6.9961-4.957-6.7845-5.4493-8.5782A47.8171,47.8171,0,0,1,99.3589,25.4q0-1.2655.07-3.8145t.07-3.8144q0-.9141,1.16-.9141,1.793,0,5.4316.1055t5.4316.1055q.7383,0,.7383,1.09,0,.9845-.1054,2.9707t-.1055,2.9707q0,4.43.1406,6.0117.1055,1.2312,2.1094,4.57,2.1093,3.48,3.0586,3.48.8085,0,2.7422-3.4453a16.5246,16.5246,0,0,0,1.9336-4.3945,59.7711,59.7711,0,0,0,.3515-6.7149q0-.9492-.1758-2.8828t-.1757-2.9179q0-.6674.7382-.668,1.7931,0,5.3614-.1406t5.3613-.1407a1.2136,1.2136,0,0,1,1.2305.9141A33.7969,33.7969,0,0,1,135.2183,25.2593Z" />
            <path id="sign-word-4" data-name="sign-word" class="sign-word"
                d="M174.769,32.7476q0,2.7077.3164,8.0507t.3165,8.0157q0,1.4063-1.2305,1.5117-4.3595.3163-9.9844.3164-.668,0-.8965-2.0215t-.5449-2.0566a3.2379,3.2379,0,0,0-.7383.5976q-3.9375,3.9733-8.4375,3.9727A14.1467,14.1467,0,0,1,142.2144,45.72a18.1883,18.1883,0,0,1-4.254-12.0937q0-8.1211,4.3946-13.0782,4.57-5.1327,12.5156-5.1328a10.7153,10.7153,0,0,1,8.7188,3.8672c.0932.1177.1757.1758.246.1758q.3165,0,.7208-1.7051t.9667-1.7051a30.899,30.899,0,0,1,4.9571.7383,50.3144,50.3144,0,0,1,4.9922,1.1953q.5273.211.5273.5625a6.2914,6.2914,0,0,1-.1055.7383A77.2617,77.2617,0,0,0,174.769,32.7476Zm-11.32.2109a6.8315,6.8315,0,0,0-1.8808-4.94,7.1405,7.1405,0,0,0-9.791-.0175,6.847,6.847,0,0,0-1.8633,4.957,6.7839,6.7839,0,0,0,1.9687,4.8867,6.3972,6.3972,0,0,0,4.7813,2.0391,6.52,6.52,0,0,0,4.8867-1.9512A6.8381,6.8381,0,0,0,163.4487,32.9585Z" />
            <path id="sign-bracket" class="sign-bracket"
                d="M21.1719,48.1367q-4.7812-3.7259-10.6172-8.2617a26.5194,26.5194,0,0,0-9-4.6055A1.2515,1.2515,0,0,1,.5,33.9688q0-.7032.1055-2.0918t.1054-2.0918q0-.5977-.1054-1.8457T.5,26.0586a1.3567,1.3567,0,0,1,1.0547-1.3008,59.7757,59.7757,0,0,0,9.1406-4.8164,51.3176,51.3176,0,0,0,4.957-3.5508q4.3945-3.4452,4.7813-3.7265a3.2436,3.2436,0,0,1,.8789-.4922q.8438.3514,2.4258,3.5859A12.5084,12.5084,0,0,1,25.25,19.9414a1.8809,1.8809,0,0,1-.4922.9844,24.7953,24.7953,0,0,1-13.1133,8.2969,1.3464,1.3464,0,0,0-.7031.457,1.1886,1.1886,0,0,0,.6328.4922q10.0541,4.1133,13.2539,8.6133a2.1965,2.1965,0,0,1,.4922,1.09,15.3547,15.3547,0,0,1-1.6875,4.57Q21.91,48.1366,21.1719,48.1367Z" />
            <path id="sign-bracket-2" data-name="sign-bracket" class="sign-bracket"
                d="M197.5156,54.9922a1.3387,1.3387,0,0,1-.4922-.1406q-2.8476-1.02-6.6093-2.6016a.632.632,0,0,1-.2461-.5977,3.21,3.21,0,0,1,.1054-.7734Q195.1595,34.075,197.41,25.32L201.8047,8.27q.4922-2.3547,1.6523-6.9961.2111-.7727.7383-.7734a14.2068,14.2068,0,0,1,4.1133,1.1953q3.2343,1.3008,3.2344,2.1094,0,.3164-3.1992,11.7773-3.5157,12.5508-3.7618,13.43-1.3366,5.239-4.1836,16.6641-.5984,2.9187-2.1445,8.543Q198.0077,54.9915,197.5156,54.9922Z" />
            <path id="sign-bracket-3" data-name="sign-bracket" class="sign-bracket"
                d="M239.3867,33.9688a1.3655,1.3655,0,0,1-1.09,1.3007,59.8581,59.8581,0,0,0-9.1407,4.8164q-2.039,1.2657-4.957,3.5157-4.3593,3.48-4.7812,3.7617a3.238,3.238,0,0,1-.8789.4922q-.7383-.3165-2.1973-3.27a12.3258,12.3258,0,0,1-1.459-3.832,1.827,1.827,0,0,1,.5274-1.02q5.66-6.9609,12.7968-8.93a1.5139,1.5139,0,0,0,.7383-.457,1.417,1.417,0,0,0-.668-.4922q-9.6327-3.9727-13.1484-9a1.8866,1.8866,0,0,1-.4922-1.0547,15.6151,15.6151,0,0,1,1.7227-4.3946q1.7218-3.5148,2.32-3.5156,4.7805,3.7266,10.6172,8.2617a26.5041,26.5041,0,0,0,9,4.6055,1.2623,1.2623,0,0,1,1.09,1.3008q0,.7038-.1055,2.0918t-.1054,2.0918q0,.5983.1054,1.8457T239.3867,33.9688Z" />
        </g>
    </g>
</svg>