<svg xmlns="http://www.w3.org/2000/svg" width="3175.32" height="81.7602" viewBox="0 0 3175.32 81.7602">
    <defs>
        <style>
            .cls-1 {
                fill: #b6bfd4;
                opacity: 0.5;
            }
        </style>
    </defs>
    <g id="Layer_2" data-name="Layer 2">
        <g id="Layer_1-2" data-name="Layer 1">
            <path class="cls-1"
                d="M3175.32,49.96v31.8h-800V81.7h-779v.06h-800V81.7H0V49.9C144.5,49.9,194.5,0,394.5,0,595.1-.1,644.5,49.9,800,49.9v.05C941.68,49.11,992.53.06,1190.82.06c195.58-.1,247.43,47.43,394.03,49.81C1724.89,48.55,1776.22,0,1973.5,0c200.6-.1,250,49.9,405.5,49.9v.05C2520.68,49.11,2571.53.06,2769.82.06,2970.42-.04,3019.82,49.96,3175.32,49.96Z" />
        </g>
    </g>
</svg>