<?xml version="1.0" encoding="utf-8"?>
<!-- Generator: Adobe Illustrator 25.2.0, SVG Export Plug-In . SVG Version: 6.00 Build 0)  -->
<svg version="1.1" id="Layer_1" xmlns="http://www.w3.org/2000/svg" xmlns:xlink="http://www.w3.org/1999/xlink" x="0px"
	y="0px" viewBox="0 0 1159.2 802.4" style="enable-background:new 0 0 1159.2 802.4;" xml:space="preserve">
	<style type="text/css">
		.st0 {
			fill: #48629B;
		}

		.st1 {
			fill: #34446B;
		}

		.st2 {
			fill: url(#SVGID_1_);
		}

		.st3 {
			fill: url(#SVGID_2_);
		}

		.st4 {
			fill: #F5E6D6;
		}

		.st5 {
			fill: #FBB09C;
		}

		.st6 {
			fill: #778CBB;
		}

		.st7 {
			fill: #FCB191;
		}

		.st8 {
			fill: #1A1A1A;
		}

		.st9 {
			fill: #3A335F;
		}

		.st10 {
			fill: #2B214E;
		}

		.st11 {
			fill: #333333;
		}

		.st12 {
			fill: none;
			stroke: #000000;
			stroke-miterlimit: 10;
		}

		.st13 {
			fill: #E2BBC9;
			stroke: #000000;
			stroke-width: 0.25;
			stroke-miterlimit: 10;
		}

		.st14 {
			fill: #DBA8AD;
			stroke: #000000;
			stroke-width: 0.25;
			stroke-miterlimit: 10;
		}

		.st15 {
			fill: none;
			stroke: #000000;
			stroke-width: 0.25;
			stroke-miterlimit: 10;
		}

		.st16 {
			fill: #4D4D4D;
			stroke: #000000;
			stroke-width: 0.25;
			stroke-linejoin: round;
		}

		.st17 {
			fill: #4D4D4D;
		}

		.st18 {
			fill: #333333;
			stroke: #000000;
			stroke-width: 0.25;
			stroke-miterlimit: 10;
		}

		.st19 {
			fill: #666666;
		}

		.st20 {
			fill: #48629B;
			stroke: #000000;
			stroke-width: 0.25;
			stroke-miterlimit: 10;
		}

		.st21 {
			fill: #384B76;
		}

		.st22 {
			fill: #A7B7BB;
			stroke: #000000;
			stroke-width: 0.25;
			stroke-miterlimit: 10;
		}

		.st23 {
			fill: #E4BEC2;
		}

		.st24 {
			fill: #5974AE;
		}

		.st25 {
			fill: #48629B;
			stroke: #000000;
			stroke-width: 0.1;
			stroke-miterlimit: 10;
		}

		.st26 {
			fill: #48629B;
			stroke: #000000;
			stroke-miterlimit: 10;
		}

		.st27 {
			fill: #384B76;
			stroke: #000000;
			stroke-miterlimit: 10;
		}

		.st28 {
			fill: none;
		}

		.st29 {
			opacity: 0.5;
			fill: url(#SVGID_3_);
			enable-background: new;
		}
	</style>
	<g id="menu-bg">
		<path class="st0" d="M712.1,791.4c4.4-16.6,2.9-33.6-3-50.8c16.6,24.7,27.2,46.7,27.8,63h-30L712.1,791.4z" />
		<path class="st0" d="M513.5,536c-27.9-17.9-51.6-32.2-63.8-40c-106.6-67.8-42.7-193.1-39.3-199.6c0.1-0.2,0.2-0.3,0.3-0.5l4.2-5
		c-5.5,10.9-14.7,29.4-17.7,40.8l0,0c-2.8,10.4-4,21.2-3.7,32c0.6,16.4,2.5,31.4,6.2,45.1c11.9,44.7,40,76.3,84.7,105.3
		C494.5,520.9,504.2,528.2,513.5,536z" />
		<path class="st0" d="M482.8,153c-0.3,14.3-4.4,28.3-10.7,42.2c9.3-47.9-8.7-71.3-8.7-71.3C383.5,5.6-34.1,0-34.1,0h312.9
		C343.3,25.1,484.6,75.4,482.8,153z" />
		<path class="st1" d="M736.8,803.6L736.8,803.6C736.9,804.9,736.9,806.1,736.8,803.6z" />
		<path class="st1"
			d="M1159.2,0v803.6H736.8c-0.6-16.3-11.2-38.3-27.8-63c-5.1-14.7-13.4-29.4-24-44c-0.1-0.1-0.2-0.3-0.3-0.4
		c-0.7-1-1.5-2-2.2-3c-2.2-2.9-4.5-5.8-6.9-8.8c-0.8-1-1.6-1.9-2.4-2.9c-12.7-14.9-26.4-29-41-42c-7-6.4-14.3-12.6-21.7-18.8
		c-3.6-3-7.2-5.9-10.8-8.8c-4.1-3.3-8.3-6.6-12.5-9.8c-17.2-16.6-34-32-49.2-45.4c-0.1-0.1-0.2-0.2-0.4-0.3
		c-5-4.4-9.9-8.6-14.6-12.5c-3.3-2.8-6.5-5.4-9.6-7.9c-9.3-7.8-19-15.1-29.1-21.8c-44.6-28.9-72.8-60.5-84.7-105.3
		c-3.6-13.7-5.5-28.7-6.2-45.1c-0.4-10.8,0.9-21.6,3.7-32l0,0c3.2-11.6,7.6-22.9,13.1-33.5c18.1-35.7,46.4-69,61.7-103
		c6.2-13.9,10.3-27.9,10.7-42.2c0-0.5,0-1,0-1.5c0-1.2,0-2.4-0.1-3.5c0-0.6-0.1-1.2-0.1-1.8C476.1,72.5,338.4,24.3,275.9,0H1159.2z" />
		<path class="st0" d="M709.1,740.6c-29.1-43.3-76.7-94.9-121.8-138.5C641.2,643.5,692.5,692.5,709.1,740.6z" />

		<linearGradient id="SVGID_1_" gradientUnits="userSpaceOnUse" x1="230.07" y1="90.2943" x2="1013.9813"
			y2="90.2943" gradientTransform="matrix(1 0 0 -1 -0.5587 802.424)">
			<stop offset="0.3098" style="stop-color:#48629B" />
			<stop offset="0.723" style="stop-color:#34446B" />
		</linearGradient>
		<path class="st2" d="M518.4,653c0,0-144.9,25.7-145.3,45.4s90.4,13.4,83.1,32.1c-7.3,18.8-127.3,61.2-226.7,73.1h781l3-183
		C1013.4,620.6,547.2,637.1,518.4,653z" />
	</g>
	<g id="Window">

		<linearGradient id="SVGID_2_" gradientUnits="userSpaceOnUse" x1="735.6459" y1="574.937" x2="732.5152"
			y2="313.5294" gradientTransform="matrix(1 0 0 -1 0 802)">
			<stop offset="0" style="stop-color:#734897" />
			<stop offset="0.986" style="stop-color:#FCB191" />
		</linearGradient>
		<rect x="632.4" y="215.2" class="st3" width="203.5" height="277.2" />
		<path class="st4" d="M801.3,503.4H664.1c0-1.9,0.2-3.7,0.3-5.5c3.5-37.1,32.7-66.1,68.3-66.1s64.7,29,68.3,66.1
		C801.2,499.7,801.3,501.5,801.3,503.4z" />
		<path class="st5" d="M835.9,215.2v12.3c-67.8,7.2-135.7,14.4-203.5,21.6v-33.9H835.9z" />
		<polygon class="st5" points="823.2,234.1 763.8,244.4 823.2,244.4 	" />
		<path class="st5"
			d="M835.9,269.7v24.2c-30,2.8-60,5.7-89.9,8.5c-9.5,13.2-25.7,8.4-31.7,9c-7.6,0.8-15.3,0.4-22.8-1.2
		c0,0-6.3,0.8-18.1,2.4c-9.9,1.3-23.7,3.2-41,5.5v-51.3c5.8,0.4,11.4,1.8,16.7,4.2c7,3.2,7.8,6.2,13.8,6.9c9.2,1.2,13.3-5,20.3-2.4
		c6.1,2.2,5.2,7.4,10.2,8.5c8.7,2,14.8-13.2,24.4-11.8c6.6,1,6.7,8.7,13.4,9.8c9.2,1.4,13.4-12.4,22.8-11.8
		c10.8,0.6,15.8,19.5,23.2,17.9c3.4-0.8,2.9-4.9,7.3-7.7c7.3-4.6,14.8,2.8,25.6,2.8C821.9,283.3,829.7,274.8,835.9,269.7z" />
		<path class="st5" d="M707.3,339c-3,0.1-6,0.1-9,0.2c-6.5,0.2-23.5,0.6-23.5,0.6c-13.2,0.3-29.5,1.3-42.5,1.9v-10.2
		c5.3-4.6,7.5-8.8,11.8-8.3c3.7,0.4,4,3.7,11.4,7.3c3.1,1.5,6.4,2.6,9.8,3.3c9.1,2,13.8,0.5,21.6,0.8
		C693.9,334.8,700.8,336.3,707.3,339z" />
		<path class="st6" d="M621.9,503.3V208.8h222v294.4H621.9z M629.8,498H836V219.7H629.8V498z" />
		<path d="M843.8,209v294.2H622.1V209H843.8 M629.7,498.1h206.4V219.6H629.7V498.1 M844,208.7H621.8v294.7H844V208.7z M629.9,497.8
		v-278h205.9v278H629.9z" />
		<path class="st7" d="M630.1,497.7V220h205.7v277.7H630.1z M635.5,490.1h194.8V227.3H635.5V490.1z" />
		<path d="M835.6,220.1v277.5H630.2V220.1H835.6 M635.4,490.2h195V227.1h-195V490.2 M835.9,219.9H629.9v278h205.9V219.9z M635.6,490
		V227.4h194.5V490H635.6z" />
		<path class="st6" d="M632.1,368.9V221.9h204.5v147.1H632.1z M639.3,366.4h190V227.2h-190L639.3,366.4z" />
		<path d="M836.4,222v146.8H632.2V222H836.4 M639.2,366.5h190.2V227.1H639.2V366.5 M836.7,221.7H632v147.3h204.7V221.7z M639.5,366.3
		v-139h189.7v139H639.5z" />
		<path class="st7" d="M639.6,366.2V227.4h189.5v138.7H639.6z M644.6,362.5h179.5V231H644.6L644.6,362.5z" />
		<path d="M828.9,227.6V366H639.7V227.6H828.9 M644.5,362.6h179.7V230.8H644.5V362.6 M829.2,227.3H639.5v139h189.7V227.3z
		 M644.7,362.4V231.1h179.2v131.3H644.7z" />
	</g>
	<g id="chair">
		<path class="st8" d="M783,628.6c0,0-0.4,15-3.7,15.8c-1.4,0.3-18.5,2.2-38.1,4h-6.3v51.4h-3.5l0.1,3.2l0.5,21l0.1,5.6l0.1,5.3
		c0,0,15.2,18.7,20.2,18.9H697c0,0-4.6,2.4,8-4.3c12.5-6.6,18.6-19.9,18.6-19.9v-26.6h-5.5l-0.6-52.7c-18.9,1.3-34.9,1.9-35.5,0.1
		c-1.5-4.4-2.2-12.1-2.2-12.1L783,628.6z" />
		<path class="st8" d="M741.2,648.3c-2.1,0.2-4.2,0.4-6.3,0.5v-0.5H741.2z" />
		<path class="st9" d="M785,620.1c0,0.2,0,0.4-0.1,0.6c0,0-1.7,0-2.9,0s-5.4,4.4-9.4,10.3c-4,5.9-40.4,4.4-41.1,5.2
		c-0.7,0.7-42.8-1.1-52.3-1.4c0-0.1,0-0.2,0-0.3c0-1.2,0.2-2.3,0.5-3.5c0.1-0.2,8.1-7.7,9-7.9c0,0,9.5-5.4,15.4-6.1
		s76.9-3.7,79.9-0.7C784.9,617.1,785.2,618.4,785,620.1z" />
		<path class="st10" d="M785,620.7c-0.5,4.4-3.1,10.7-4.6,14.8c-2.2,5.9-19.2,4.4-28.1,4.4c-8.2,0-63.6,2.2-68.3,2.3
		c-0.5,0-1.1-0.1-1.5-0.4c-2-1.2-3.1-4.1-3.1-7.1c9.5,0.3,51.6,2.1,52.3,1.4c0.7-0.7,37.1,0.7,41.1-5.2c4-5.9,8.1-10.3,9.4-10.3
		S785,620.7,785,620.7z" />
		<path class="st10" d="M821.8,467.5c0,0-11.4-1.8-13.6,15.9s-5,42.5-3.3,47.5s5.8,13.2,11.6,13.6s11.4-5.8,12.6-17.4
		s6.5-45.1,3.6-50.9S821.8,467.5,821.8,467.5z" />
		<path class="st8" d="M826.3,537.6c0,0-12.8,88.3-20.2,94.9s-27.9,11.8-27.9,11.8v-6.3c0,0,20.7-5.6,24-9.8
		c3-3.9,15.8-74.9,15.8-74.9l2.5-14.2L826.3,537.6z" />
		<path class="st9"
			d="M813.7,470.4c0,0-5,53.5-1.4,54.9s13.2-0.2,14-6.8s5.6-43.7,5.6-43.7S824,461.4,813.7,470.4z" />
		<path class="st8" d="M741.2,648.3c-2.1,0.2-4.2,0.4-6.3,0.5v-0.4L741.2,648.3z" />
		<path class="st11" d="M760.4,753.7h-8c-5.1-0.1-20.2-18.9-20.2-18.9l-0.1-5.3l-0.1-5.6l-0.5-21l-0.1-3.2h3.5v-50.9
		c2.1-0.2,4.2-0.4,6.3-0.5l-1.5,54.6h-4.9v26.6C734.5,742.2,760.4,753.7,760.4,753.7z" />
		<path class="st8" d="M741.2,648.3c-2.1,0.2-4.2,0.4-6.3,0.5v-0.5H741.2z" />
	</g>
	<g id="charecter">
		<path class="st12" d="M726.8,403.6" />
		<path class="st13" d="M723.6,502.7l-5.5,0.3C719.9,502.8,721.8,502.7,723.6,502.7z" />
		<path class="st13"
			d="M715,494.9l-1.8,3.1v0l-1,0c0,0,0,0,0,0c0.4-0.9,0.7-1.9,1.1-3C714.4,495,715,494.9,715,494.9z" />
		<path class="st14" d="M752.8,437.9c-0.1,0.4-0.2,0.9-0.4,1.3c0.1-0.5,1-3.5-0.3-5.4c-1.4-2-8.2-8.2-8.2-8.2s-0.7,0-0.7,1.4
		c0,1.4,0,2,0.7,2.7s2.9,5,3.4,5.4c0.9,1.1,1.2,2.7,0.7,4.1c-0.3,0.6-0.7,1.1-1,1.6l-0.4-0.7l0.6-1.5c0.5-1.3,0.3-2.7-0.5-3.8
		c-0.6-0.7-1.2-1.8-2-3.1c-2-3.4-3.4-2-3.4-2c-0.3,0.4-0.4,1-0.3,1.5c0,0.4,0.1,0.8,0.3,1.2c0.7,2,2,4.1,1.4,5.4
		c-0.7,1.4-0.7,3.4-2.7,3.4s-6.1,2-6.8,3.4c0,0.1-0.1,0.2-0.1,0.3c0,0.1-0.1,0.1-0.1,0.2c-2.6-0.1-4.7-0.2-5.4-0.2c0,0-0.1,0-0.1,0
		c-1.4-0.1-2.1-1.5-2.8-2.2c-0.7-0.7-0.7-5.2-0.7-5.9s-3-3.7-3-3.7s0-2.2,0.7-2.2s-2.2-2.2-1.5-3.7s-1.8-5.7-1.8-5.7
		c7.7-1.1,8.4-10.8,8.5-12.5c0.1,0.2,0.2,0.3,0.3,0.5c0.3,0.4,0.4,0.7,0.4,0.7c0-0.1-0.1-0.3-0.2-0.6c0-0.1-0.1-0.2-0.1-0.4
		c-0.5-1.8-1.2-5.5,1-7.1l0.1,0.2c0.2,0.7,1.1,2.8,2.2,3.5c0,0,0-0.1,0-0.2c-0.2-1.2-1.2-7,0-6.4c0,0,0,0,0.1,0
		c2.2,1.2,4.1,3.1,5.2,5.3c0.5,1,0.7,2.1,0.7,3.2c0,0,1.4-2.6,0.6-4.1s11.1,5.2,8.9,11.1c-0.1,1.6-0.6,3.1-1.5,4.4
		c0,0,4.4-3,4.4-4.4c0,0,1.5,0,3,2.2c0.6,0.9,0.9,2,0.9,3.1c-0.5,0-1,0.1-1.4,0.3c0,0-0.9,1.1-0.5,4.3
		C751.4,427.7,753.4,435.2,752.8,437.9z" />
		<path class="st14"
			d="M727.3,409.6c0.1,0.3,0.2,0.5,0.2,0.6c-0.2-0.4-0.5-0.8-0.7-1.2c0-0.2,0-0.3,0-0.3L727.3,409.6z" />
		<path class="st14" d="M746.9,440.9l4.1,6.5c-2.4-1.4-5.6-2.9-8.3-2.4c-3.3,0.4-6.6,0.4-9.9,0.2c0-0.2,0.1-0.3,0.2-0.5
		c0.7-1.4,4.8-3.4,6.8-3.4s2-2,2.7-3.4c0.7-1.4-0.7-3.4-1.4-5.4c-0.1-0.4-0.2-0.8-0.3-1.2l5.6,8.9L746.9,440.9z" />
		<path class="st15" d="M750.4,444.8c1.2,0.4,2.3,0.8,3,1.1c0.1,0,0.1,0,0.2,0.1c0.9,0.6,1.6,1.3,2.3,2.2" />
		<path class="st14" d="M723.6,502.7l-5.5,0.3C719.9,502.8,721.8,502.7,723.6,502.7z" />
		<path class="st16" d="M727.5,410.2c0-0.1-0.2-0.3-0.4-0.7c0-0.2,0-0.3,0-0.4c0,0.1,0.1,0.1,0.1,0.2c0,0.1,0.1,0.3,0.1,0.4
		C727.4,409.9,727.5,410.1,727.5,410.2z" />
		<path class="st16" d="M730.5,405.8c-1.2-0.6-2-2.7-2.2-3.5c0.1-0.1,0.2-0.1,0.2-0.2c0.4,1.3,1,2.5,1.9,3.4
		C730.5,405.7,730.5,405.8,730.5,405.8z" />
		<path class="st17" d="M784.5,428.6l-7.4-4.4l2.2,4.4l2.2,11.9l-3.7-6.7l-1.7-1.9c0,0-2.7,2.6-1.2,7.8c0.2,0.7,0.3,1.2,0.4,1.5
		c0.2,1.1-0.1,0.9-0.4,0.4c-0.4-0.6-0.8-1.2-1.1-1.9l-3.3-4.4l-1.5,8.9l-3.9-10c0,0-0.7-2.7-1.3-5.3c-0.4-1.5-0.6-3.1-0.8-4.6
		c0-2.2-2.2,3-2.2,3c0-1.3-0.1-2.6-0.4-3.9c-0.4-0.9-1.1,3.9-1.1,3.9c0-0.7-1.5-5.9-1.5-5.9c-1.5-0.7-1.5,3-1.5,3l-1.6-3.5l-0.2,0.1
		l-0.6,0.4l-1.3,0.8c0.1-0.7,0.2-1.4,0.2-2.1c0-1.1-0.3-2.2-0.9-3.1c-1.5-2.2-3-2.2-3-2.2c0,1.5-4.4,4.4-4.4,4.4
		c0.9-1.3,1.4-2.9,1.5-4.4c2.2-5.9-9.6-12.6-8.9-11.1s-0.6,4.1-0.6,4.1c0-1.1-0.2-2.2-0.7-3.2c-1.2-2.3-3-4.1-5.2-5.3
		c0,0-0.1,0-0.1,0c-1.3-0.6-0.3,5.2,0,6.4c-0.9-1-1.6-2.2-1.9-3.4c-0.1,0.1-0.2,0.1-0.2,0.2l-0.1-0.2c-2.2,1.7-1.5,5.4-1,7.1
		c0-0.1-0.1-0.1-0.1-0.2c0,0.1,0,0.2,0,0.4c-0.1-0.1-0.2-0.3-0.3-0.5c-0.4-0.6-0.9-1.2-1.5-1.8c-0.9-1-1.2-2.4-0.7-3.7
		c-0.9,0.5-1.7,1.3-2.2,2.2c-0.5,0.7-0.5,1.6,0,2.3c-0.8-0.7-1.5-1.5-2.2-2.3c-0.4-0.6,1.4-4.9,2-6.2l-0.5,1.1c0,0-2.2,4.4-4.4,4.4
		c-2.3,0-3-0.7-3-0.7c1.1-0.3,2.1-0.8,3-1.5c1.4-1.3,2.6-6.1,3-6.7c0.5-0.9-3.7,3-3.7,3l0.7-3.5c0-0.2,0.1-0.3,0.2-0.4l1.1-1.3
		c2.6-3.2,5.6-6,9.1-8.3c3.7-2.5,8.1-3.7,12.6-3.5c0,0-5.9-3-5.9-6.7c0,0,8.1,5.2,10.4,4.4c0,0-2.2-0.7-2.2-2.2
		c1.2,0.6,2.4,1.1,3.7,1.5c0,0,4.4-1.5,5.9,0c0.6,0.6,4.1,0.5,8.5,0.9c2.9,0.2,5.8,0.7,8.7,1.5c4.8,1.4,9.2,3.9,10.7,8.8
		c-0.1-0.2-2.5-2.8-4.8-2.5c0,0,6.6,5.4,6.9,9.9c0,0-1.7-1.1-3.4-2.2c2.1,1.9,4.4,5.5,4.4,11.9c0,11.8,1.5,17.8,1.5,17.8l-3.6-3
		L784.5,428.6z" />
		<path class="st18"
			d="M758.8,411.5c0,0,6.8-27.3,1.6-31.5l8.7,1.5c0,0,4.6,13.8-1.6,31.5S758.8,411.5,758.8,411.5z" />
		<path class="st19" d="M732.5,400.2c-0.5-0.4-1-0.7-1.6-1c-0.1-0.1-0.2-0.1-0.3,0c0,0-0.1,0-0.1,0c-1.3-0.6-0.3,5.2,0,6.4
		c-0.9-1-1.6-2.2-1.9-3.4c-0.1,0.1-0.2,0.1-0.2,0.2l-0.1-0.2c-2.2,1.7-1.5,5.4-1,7.1c0-0.1-0.1-0.1-0.1-0.2c0,0.1,0,0.2,0,0.4
		c-0.1-0.1-0.2-0.3-0.3-0.5c-0.4-0.6-0.9-1.2-1.5-1.8c-0.9-1-1.2-2.4-0.7-3.7c-0.9,0.5-1.7,1.3-2.2,2.2c-0.5,0.7-0.5,1.6,0,2.3
		c-0.8-0.7-1.5-1.5-2.2-2.3c-0.4-0.6,1.4-4.9,2-6.2l-0.5,1.1c0,0-2.2,4.4-4.4,4.4c-2.3,0-3-0.7-3-0.7c1.1-0.3,2.1-0.8,3-1.5
		c1.4-1.3,2.6-6.1,3-6.7c0.5-0.9-3.7,3-3.7,3l0.7-3.5c0-0.2,0.1-0.3,0.2-0.4l1.1-1.3c2.6-3.2,5.6-6,9.1-8.3l-8.5,8.7l-0.7,1.7l3-0.9
		l-2.2,6.7l3.9-4.3l-1.7,7.2l3.7-2.2c0,0-0.7,2.2,0,3c0.4,0.4,0.7,0.9,0.7,1.5c0,0,1.5-5.9,2.2-5.9c0.7,0,1.7,2.4,1.8,2.6
		c0-0.3-1-6.3,0.5-6.3C731.5,397.3,732.4,400,732.5,400.2z" />
		<path class="st18" d="M770,419.8c0,4.5-2.7,8.2-6.3,9.1c-0.5,0.1-1,0.2-1.5,0.2c-4,0-7.3-3.6-7.7-8.2c0-0.4-0.1-0.7-0.1-1.1
		c-0.1-3.3,1.5-6.5,4.3-8.3c1-0.6,2.2-1,3.4-1c2,0,3.8,0.9,5.2,2.3C769.1,414.8,770.1,417.3,770,419.8z" />
		<path class="st14" d="M774.8,441.7c-2.5,2.2-5.8,6.6-9.2,10.7c-1.2,1.4-2.5,2.7-3.8,3.9c-1.8-2.8-3.8-5.6-5.9-8.2
		c2.1-1.2,3.7-2.2,3.7-2.7c0,0,0.8-13.4,0.1-14.1c-0.4-0.4-1.5-4.4-3-3c-0.2,0.2,0.2,2.4,0.3,2.7c0.5,2.4,1.4,7.4-0.2,8.9l-1.6-11.6
		c0,0-0.3-4.8-1.3-7.1l0.6-0.4c0.4,4.6,3.7,8.2,7.7,8.2c0.5,0,1-0.1,1.5-0.2c0.6,2.6,1.3,5.3,1.3,5.3l3.9,10l1.5-8.9l3.3,4.4
		C774,440.5,774.4,441.1,774.8,441.7z" />
		<path class="st15" d="M775.2,441.3c-0.1,0.1-0.3,0.2-0.4,0.4" />
		<path class="st18" d="M748.6,582.6l-68.8,6.7l0.1,43.2c0,0,61.2-9.3,82.1-11.1c3.4-0.3,28.1-13.2,28-13.3" />
		<path class="st20" d="M771.8,496.5c-1.6,3.3-15.4,18-26.9,28.8c-6.1,5.8-11.5,10.5-14.1,11.8c-7.4,3.7-11.8,2.9-11.8,2.9
		c-18.5,0.1-21.5-0.7-24.5-4.4c-2.8-3.5,6.3-20.3,7.4-22.2c4.4,0.3,12.5,0.7,13.3,0.7c0.9,0.1,5.6,3.7,8.4,3.7s10.9-3.7,11.6-6.7
		c0.6-2.7-2.1-6-5.2-6.7c5.9-3.7,13.3-32.7,19.2-38.5c0,0,14.1,3.7,14.8,5.2S774.3,491.4,771.8,496.5z" />
		<path class="st20" d="M790,608.1c-6.5,10.8-48.8-19.2-48.8-26.6c0-7.2,5.6-21.4,3.2-33.4c-0.1-0.7-0.2-1.4-0.2-2l0.8-20.7
		c11.4-10.8,25.2-25.5,26.9-28.8c2.5-5.1-7-23.7-7.7-25.2s-14.8-5.2-14.8-5.2c5.2-5,8.5-6.3,12.4-9.8c1.4-1.2,2.6-2.5,3.8-3.9
		c3.4-4,6.8-8.4,9.2-10.7c0.4,0.5,0.6,0.7,0.4-0.4c1.6-1.3,2.8-1.6,3.2,0c1.2,4.1,16.7,3.9,22,50.5
		C805.7,537.2,807.8,578.5,790,608.1z" />
		<path class="st21" d="M733.3,512.8c0,0,10.6,13.4,4.7,13.1S733.3,512.8,733.3,512.8z" />
		<path class="st22" d="M713,495.1c-1.1,0.5-4.8,2.2-5.3,2.1c-0.5-0.1-1.3,4.3-0.5,5.1c0,0-3.7,2.2-3.7,3s-1.5,6.7-0.7,7.4l1.5,1.5
		l-0.1,0.1c-0.5,0-1-0.1-1.5-0.2c-3.4-0.8-1.5-7.3-0.9-8.8c0.6-1.5,3.1-2.2,3.1-3c0-1.8,0.4-3.5,1.2-5.1
		C706.6,496,710.2,495.4,713,495.1z" />
		<path class="st6" d="M735.4,511.2c-0.6,3-9.2,6.7-11.7,6.7s-8-3.7-8.8-3.8c-0.7-0.1-6.6,0.6-10.5,0.3c-0.1,0-0.2,0-0.3,0l0.1-0.1
		l-1.5-1.5c-0.7-0.7,0.7-6.7,0.7-7.4s3.7-3,3.7-3c-0.7-0.7,0-5.2,0.5-5.1c0.4,0.1,4.2-1.6,5.3-2.1c0.7-0.1,1.2-0.1,1.8-0.1
		c-0.3,1-0.7,2-1,3c0,0,0,0,0,0l0.9,0v0c2.1,0,4.1,0.3,6.2,0.6c3.1,0.7,3,4.1,3,4.1c2.1,0,4.4,0.1,6.4,0.2c1.3,0.1,2.5,0.1,3.5,0.1
		c0.3,0,0.5,0,0.8,0.1C737.1,503.8,736,508.5,735.4,511.2z" />
		<path class="st14" d="M759.5,431.3c-0.4-0.4-1.1-3.1-2.2-3.3h0c-0.3,0-0.6,0.1-0.7,0.3c-0.2,0.2,0.2,2.4,0.3,2.7
		c0.4,1.9,0.7,3.8,0.7,5.7c0.1,1.1-0.2,2.2-0.8,3.1c0,0-0.1,0.1-0.1,0.1l-0.5-3.8l-1.1-7.8c0,0-0.2-4.7-1.2-7c0,0,0,0,0-0.1
		c-0.1-0.3-0.3-0.7-0.5-1c-0.1-0.1-0.3-0.2-0.5-0.3c0,0-0.1,0-0.1,0c0,0-0.1,0-0.1,0c0,0,0,0,0,0c0,0,0,0,0,0c0,0,0,0,0,0h0
		c0,0,0,0-0.1,0c-0.3,0-0.5,0.1-0.8,0.1c-0.1,0-0.2,0.1-0.2,0.1l0,0c-0.1,0.1-0.8,1-0.7,3.4c0,0.3,0.1,0.6,0.1,0.9
		c0.3,2.4,1.5,7,1.9,10.4c0,0.4,0.1,0.8,0.1,1.2v0.1c0,0.3,0,0.6,0,0.8c0,0.1,0,0.2,0,0.3v0c0,0.2-0.1,0.5-0.1,0.7
		c-0.1,0.4-0.2,0.9-0.4,1.3c0.4-1.4,0.5-3,0.2-4.5c-0.1-0.3-0.3-0.7-0.4-0.9c-1.3-1.9-7.6-7.6-8.1-8.1c0,0,0,0,0,0
		c0,0-0.7,0-0.7,1.4c0,1.4,0,2,0.7,2.7c0.8,1.1,1.5,2.2,2.1,3.3c0.4,0.7,0.8,1.5,1.3,2.1c0.9,1.1,1.2,2.7,0.7,4.1
		c-0.3,0.5-0.6,1-1,1.5c0,0-0.1,0.1-0.1,0.1c-0.7,0.9-1.4,1.7-1.5,1.8l1-2.5l0.1-0.1l0.5-1.3c0.4-1,0.4-2,0-3c0-0.1-0.1-0.2-0.1-0.3
		c-0.1-0.2-0.2-0.3-0.3-0.5c0,0,0,0,0,0c-0.3-0.4-0.6-0.8-0.9-1.3c-0.1-0.2-0.3-0.4-0.4-0.6c0-0.1-0.1-0.1-0.1-0.2
		c-0.2-0.3-0.4-0.6-0.6-0.9c-1.1-1.8-2-2.3-2.6-2.3h0c-0.3,0-0.6,0.1-0.8,0.3c-0.3,0.4-0.4,0.9-0.3,1.4v0c0,0,0,0.1,0,0.1
		c0,0.3,0.1,0.6,0.2,0.9c0,0,0,0,0,0.1c0,0,0,0,0,0.1c0,0.1,0,0.2,0.1,0.2c0.4,1.3,1.1,2.6,1.4,3.7c0,0,0,0,0,0c0,0,0,0,0,0
		c0.2,0.5,0.2,1.1,0,1.6c0,0.1,0,0.1-0.1,0.2c-0.7,1.4-0.7,3.4-2.7,3.4c-0.8,0-1.7,0.2-2.4,0.6c0,0,0,0,0,0c-1.1,0.4-2.1,0.9-3,1.5
		c0,0,0,0,0,0c-0.5,0.3-1,0.8-1.3,1.3c0,0.1-0.1,0.2-0.1,0.3l-0.1,0.2v0c0,0,0,0,0,0c-0.4,1.3,0,3.1-1.2,4.3
		c-0.6,0.6-5.7,13.4-11.1,27c-1.8,4.6-3.6,9.2-5.3,13.5c-0.3,0.8-0.6,1.6-0.9,2.4c-0.3,0.9-0.7,1.8-1,2.6c0,0,0,0.1,0,0.1
		c-0.4,0.9-0.7,1.8-1,2.7l-0.1,0.1h0.1l0.8,0v0c0.1,0,0.1,0,0.1,0c0.7,0,1.3,0.1,2,0.1l0.3,0c1.5,0.1,3,0.2,4.5,0.5
		c0.1,0,0.3,0.1,0.4,0.1c1.8,0.5,3,2.2,3,4h0.3c0.2,0,0.4,0,0.6,0l0.9,0h0.1c0.5,0,1.1,0,1.6,0.1c1.3,0,2.5,0.1,3.7,0.1
		c0.4-1.6,0.8-3.3,1.2-5.1c0.4-1.8,0.8-3.6,1.3-5.5c0.2-0.8,0.4-1.6,0.6-2.4c3.8-16.3,8.3-34.8,8.9-35.1c0.6-0.3,5.5-2.7,9.8-4.9
		c0.5-0.2,0.9-0.5,1.3-0.7c0.7-0.4,1.3-0.7,1.9-1.1c0,0,0.1,0,0.1-0.1c2.1-1.2,3.6-2.2,3.6-2.6c0,0,0.2-4,0.3-7.7
		C759.8,434.6,759.8,431.6,759.5,431.3z M750.6,442.6l1.6-3.3C751.8,440.5,751.2,441.6,750.6,442.6z" />
		<line class="st15" x1="777.6" y1="440.2" x2="775" y2="433.8" />
		<path class="st21" d="M715,514.1c0,0-8.6,5.3-4.9,9C710.1,523,710.2,519.1,715,514.1z" />
		<path class="st21" d="M732.4,514.3c0,0,0.6,16.8-8.8,14.7C723.6,529.1,728.1,529.3,732.4,514.3z" />
		<path class="st21" d="M736.1,494.9c0,0,10.3-13.3,17.7-14.1l-8.8-0.1c-0.2,0-0.5,0-0.6,0.2c-0.3,0.6-4.2,3.9-5.1,6.1
		C738.2,489.7,736.1,494.9,736.1,494.9z" />
		<path class="st21" d="M746,524.3c0,0,21-24.9,19.6-31.6c0,0-1.2,13-3.5,15.4S746,524.3,746,524.3z" />
		<path class="st21" d="M744.4,548c0,0,4.2,8.3,9.4,12c2.3,1.6,4.6,3.3,6.7,5.2c0,0-14-9.8-15.5-8.6
		C744.9,556.6,744.6,549.4,744.4,548z" />
		<path class="st14" d="M730.6,399.4" />
		<path class="st23" d="M736,405.8c-1.4-0.7-2.3-3.7-2.3-3.7c-2.4,1.8-1.4,5.9-0.9,7.5c0.1,0.3-0.5-0.6-0.5-0.5
		c-0.1-0.1,0.4,0.6-0.1-0.1c-0.1,1.5-0.6,8.4-5.2,11.4c-1.5,0.9-2.2,2.7-1.7,4.4c0.4,0.8,0.5,1.6,0.3,2.4c-0.7,1.5,2.2,3.7,1.5,3.7
		s-0.7,2.2-0.7,2.2s3,3,3,3.7s0,5.2,0.7,5.9c0.7,0.7,1.5,2.2,2.9,2.2c0,0,0,0,0.1,0c0.1,0,0.2,0,0.3,0c0,0.1-0.1,0.1-0.1,0.2
		c-2.6-0.1-4.7-0.2-5.4-0.2c-0.2,0-0.3,0-0.5-0.1c-1.2-0.3-1.8-1.5-2.5-2.2c-0.7-0.7-0.7-5.2-0.7-5.9s-3-3.7-3-3.7s0-2.2,0.7-2.2
		s-2.2-2.2-1.5-3.7s-1.8-5.7-1.8-5.7c7.3-1.1,8.3-9.6,8.5-12.1c0-0.2,0-0.3,0-0.4c0,0.1,0.1,0.1,0.1,0.2c0.2,0.3,0.4,0.7,0.6,1
		c0-0.1-0.1-0.3-0.2-0.6c-0.5-1.5-1.4-5.4,0.7-7.3c0.1-0.1,0.2-0.1,0.2-0.2c0.4,1.3,1,2.5,1.9,3.4c0.1,0.1,0.2,0.2,0.4,0.3
		c0,0-1.2-6.3-0.3-6.6c0.1,0,0.2,0,0.3,0c0.6,0.3,1.1,0.6,1.6,1v0c1.3,0.9,2.4,2.1,3.2,3.4c0,0.3,0.1,0.6,0.1,0.8
		C735.9,405.3,736,405.8,736,405.8z" />
		<path class="st23" d="M715.9,498.1c0,0,17.2-46.9,17.9-47.6s0.7-3.7,1.5-4.4s4.5-2.7,5.9-2.5s2.2,0.3,2.2-0.5s1.5-3.7,1.5-5.2
		s-3.7-8.2-3.7-8.2c-0.6,1-0.6,2.2,0.1,3.1c1.3,2.1,1.6,5,0.6,6.5c0,0,0,2.2-3,2.2s-6.3,2.3-6.1,4.1s-1.3,4-1.3,4L712.1,498
		L715.9,498.1z" />
		<path class="st24" d="M704.1,514.3c0,0-8.8,17.6-7.3,19.8s4,4.8,5.7,5c0.8,0.1,1.7,0.3,2.5,0.6c0,0-8.7-0.7-9.5-3.1
		c0,0-2.5-1.6-0.9-6.1s7.3-16.8,7.3-16.8L704.1,514.3z" />
		<path class="st15" d="M713.3,495c0,0-0.1,0.1-0.3,0.1" />
		<path class="st15" d="M732.5,400.2L732.5,400.2" />
		<path class="st15" d="M729.6,403.6L729.6,403.6" />
		<path class="st21" d="M801.1,503c0,0-8.8,27.5-16.2,31.9c0,0,17.5-14.7,17.3-17S801.1,503,801.1,503z" />
		<path class="st25" d="M744.4,541.2c0,0,8.2,13.2,15.4,14.5" />
	</g>
	<g id="desk">
		<rect x="519.2" y="553.5" class="st26" width="165.6" height="201.1" />
		<rect x="491.5" y="540.8" class="st27" width="235.3" height="12.5" />
		<rect x="518.9" y="608.3" class="st27" width="166.2" height="8.7" />
		<rect x="518.9" y="680.4" class="st27" width="166.2" height="8.7" />
		<rect x="518.9" y="745.1" class="st27" width="166.2" height="8.7" />
		<rect x="518.9" y="553.2" class="st27" width="11.8" height="200.5" />
		<rect x="673.3" y="553.2" class="st27" width="11.8" height="201.7" />
	</g>
	<path class="st8" d="M760.4,753.7c0,0-3,0.1-8,0H760.4z" />
	<line class="st28" x1="1159.2" y1="0" x2="1159.2" y2="799" />
	<g id="computer">

		<linearGradient id="SVGID_3_" gradientUnits="userSpaceOnUse" x1="588.606" y1="350.0915" x2="720.466"
			y2="350.0915" gradientTransform="matrix(1 0 0 -1 0 802)">
			<stop offset="0" style="stop-color:#FFFFFF" />
			<stop offset="0.216" style="stop-color:#F9F0F1;stop-opacity:0.7627" />
			<stop offset="0.6041" style="stop-color:#EED5D8;stop-opacity:0.3563" />
			<stop offset="0.8737" style="stop-color:#E7C4C8;stop-opacity:9.980000e-02" />
			<stop offset="1" style="stop-color:#E4BEC2;stop-opacity:0" />
		</linearGradient>
		<polygon class="st29" points="588.6,396.3 588.6,502 720.5,547.4 720.5,356.4 	" />
		<path class="st11"
			d="M586.5,395h2.3l0,0v108.7l0,0h-2.3c-8.1,0-14.8-6.6-14.8-14.8v0v-79.2C571.8,401.7,578.4,395,586.5,395z" />
		<rect x="576.2" y="477.9" class="st11" width="8.9" height="62.1" />
		<path class="st11"
			d="M568.1,535.6h25.1c2.5,0,4.5,2,4.5,4.5v0.7l0,0h-34l0,0v-0.7C563.6,537.6,565.6,535.6,568.1,535.6z" />
	</g>
</svg>