<svg xmlns="http://www.w3.org/2000/svg" width="414.9795" height="181.1441" viewBox="0 0 414.9795 181.1441">
    <defs>
        <style>
            .cls-1 {
                opacity: 0.5;
            }

            .cls-2 {
                fill: none;
                stroke: #414042;
                stroke-miterlimit: 10;
                stroke-width: 2px;
                stroke-dasharray: 12 12;
            }

            .cls-3 {
                fill: #414042;
            }
        </style>
    </defs>
    <g id="Layer_2" data-name="Layer 2">
        <g id="Layer_1-2" data-name="Layer 1">
            <g class="cls-1">
                <path class="cls-2"
                    d="M10.0236,27.9525C69.7529,44.3423,89.8514,1.5164,104.56,1.197c31.9267-.6931,60.9667-3.3815,72.4672,72.2166,7.9184,52.0508,48.1475-34.8426,101.3514-43.2432,25.6757-4.0541,46.2687,110.5839,47.2973,118.9189" />
                <polygon class="cls-3" points="15.209 16.779 7.983 39.976 0 24.765 15.209 16.779" />
            </g>
            <g class="cls-1">
                <path class="cls-3"
                    d="M215.0337,175.0972a5.7488,5.7488,0,0,1-4.0078-1.4531,5.1554,5.1554,0,0,1-1.6875-4.02,9.269,9.269,0,0,1,1.582-4.91q1.7578-2.8125,3.9609-2.8125a7.3067,7.3067,0,0,1,2.5664.539q1.793.6915,1.793,1.6875a1.1887,1.1887,0,0,1-.293.791.9449.9449,0,0,1-1.3183.1407q-.252-.2051-.4864-.4043a3.655,3.655,0,0,0-2.2617-.5508q-1.1954,0-2.3672,2.1328a7.3521,7.3521,0,0,0-1.0664,3.3867,3.0212,3.0212,0,0,0,1.0547,2.4375,3.7861,3.7861,0,0,0,2.5313.8321,3.5358,3.5358,0,0,0,1.5-.375l1.3593-.7266a1.3008,1.3008,0,0,1,.5039-.1875.9841.9841,0,0,1,.75.3457,1.1381,1.1381,0,0,1,.3165.791q0,.8554-1.8047,1.6524A6.798,6.798,0,0,1,215.0337,175.0972Z" />
                <path class="cls-3"
                    d="M231.8735,175.0855a1.0709,1.0709,0,0,1-1.09-.8907,19.9079,19.9079,0,0,1-.4922-2.73,23.5291,23.5291,0,0,1-.211-2.7891q0-.3047.0293-.9258t.0293-.9258q0-2.2031-1.1015-2.2031a3.4645,3.4645,0,0,0-2.66,1.3477,16.2529,16.2529,0,0,0-1.6406,2.6367q0,4.4649-.375,5.2851a1.0749,1.0749,0,0,1-1.0195.7266,1.22,1.22,0,0,1-.8438-.3281,1.0347,1.0347,0,0,1-.3633-.7969,2.0362,2.0362,0,0,1,.1055-.5156,9.224,9.224,0,0,0,.1289-1.711l.0352-1.7343.0351-8.6133q.0821-1.4532.082-1.957a5.5262,5.5262,0,0,0-.1113-1.1309,5.4068,5.4068,0,0,1-.1113-1.1074,1.0749,1.0749,0,0,1,.34-.8145,1.1641,1.1641,0,0,1,.8321-.3222,1.0583,1.0583,0,0,1,1.125,1.0312,12.7172,12.7172,0,0,1,.1875,2.0508q0,1.23-.0821,2.5664-.07,1.2774-.0586,2.5664l.0118,1.0313a7.0551,7.0551,0,0,1,2.0566-1.9278,4.5466,4.5466,0,0,1,2.3262-.6387,2.812,2.812,0,0,1,2.6718,1.2657,6.8242,6.8242,0,0,1,.586,3l.0937,2.2383.2344,2.4375a24.3132,24.3132,0,0,0,.3984,2.414,1.52,1.52,0,0,1,.0469.34,1.0443,1.0443,0,0,1-.3515.8027A1.2056,1.2056,0,0,1,231.8735,175.0855Z" />
                <path class="cls-3"
                    d="M241.4009,174.898a6.6176,6.6176,0,0,1-4.2891-1.3243,5,5,0,0,1-1.793-4.1015,8.5508,8.5508,0,0,1,1.4766-5.1094,5.0155,5.0155,0,0,1,4.289-2.25,6.7272,6.7272,0,0,1,3.1758.6563,2.6447,2.6447,0,0,1,1.5117,2.4843,2.6793,2.6793,0,0,1-1.3242,2.1328,18.6886,18.6886,0,0,1-2.4843,1.3125l-4.4766,2.1211a4.2746,4.2746,0,0,0,1.6348,1.4649,5.01,5.01,0,0,0,2.2793.4922,7.1951,7.1951,0,0,0,1.8984-.3047,3.0135,3.0135,0,0,0,1.7812-1.0137q.3986-.627.8555-.6269a1.0277,1.0277,0,0,1,.7324.31.9718.9718,0,0,1,.3223.7207q0,1.3008-2.0977,2.2383A8.5685,8.5685,0,0,1,241.4009,174.898Zm-.3165-10.6758a3.0038,3.0038,0,0,0-2.3789,1.1074,7.4693,7.4693,0,0,0-1.4179,3.334l3.5976-1.711a15.4508,15.4508,0,0,0,3.0235-1.7929A3.9892,3.9892,0,0,0,241.0844,164.2222Z" />
                <path class="cls-3"
                    d="M254.3735,175.0972a5.7488,5.7488,0,0,1-4.0078-1.4531,5.1554,5.1554,0,0,1-1.6875-4.02,9.269,9.269,0,0,1,1.582-4.91q1.7578-2.8125,3.961-2.8125a7.3067,7.3067,0,0,1,2.5664.539q1.7929.6915,1.7929,1.6875a1.1886,1.1886,0,0,1-.2929.791.945.945,0,0,1-1.3184.1407q-.252-.2051-.4863-.4043a3.6554,3.6554,0,0,0-2.2617-.5508q-1.1954,0-2.3672,2.1328a7.3509,7.3509,0,0,0-1.0664,3.3867,3.0209,3.0209,0,0,0,1.0547,2.4375,3.7859,3.7859,0,0,0,2.5312.8321,3.5351,3.5351,0,0,0,1.5-.375l1.3594-.7266a1.3,1.3,0,0,1,.5039-.1875.9841.9841,0,0,1,.75.3457,1.1384,1.1384,0,0,1,.3164.791q0,.8554-1.8047,1.6524A6.798,6.798,0,0,1,254.3735,175.0972Z" />
                <path class="cls-3"
                    d="M271.167,174.8394a1.0887,1.0887,0,0,1-.9961-.68,19.7966,19.7966,0,0,0-1.84-2.8008l-2.0742-2.8242q-.68.5391-2.1094,1.5117-.1288,1.8163-.1289,3.5391a1.1686,1.1686,0,0,1-.3222.8554,1.1084,1.1084,0,0,1-.8267.3282q-1.1837,0-1.1836-1.5938,0-.9726.1348-2.9121t.1347-2.9121q0-1.7812.0528-4.0723t.0527-4.0488q0-.5274-.0527-1.2422t-.0528-1.2422a1.1691,1.1691,0,0,1,.3223-.8555,1.2048,1.2048,0,0,1,1.6528,0,1.1687,1.1687,0,0,1,.3223.8555q0,.5391.0586,1.2715t.0586,1.2715l-.082,3.7734q-.0586,2.0391-.0352,4.0781a32.6832,32.6832,0,0,0,3.07-2.6718l2.5781-2.66a1.1806,1.1806,0,0,1,2.0274.8086,1.19,1.19,0,0,1-.34.7852,42.0892,42.0892,0,0,1-3.5507,3.6211l2.5546,3.48q1.7931,2.4492,1.793,3.1875a1.0628,1.0628,0,0,1-.3691.8086A1.2175,1.2175,0,0,1,271.167,174.8394Z" />
                <path class="cls-3"
                    d="M285.9326,175.05a4.5677,4.5677,0,0,1-3.3867-1.4531,6.2323,6.2323,0,0,1-1.6641-4.3477,7.58,7.58,0,0,1,1.3359-4.664,5.2445,5.2445,0,0,1,4.57-2.3789,3.8521,3.8521,0,0,1,3.5507,2.1445,8.2334,8.2334,0,0,1,.9258,4.1719,7.5822,7.5822,0,0,1-1.3594,4.4414A4.6655,4.6655,0,0,1,285.9326,175.05Zm.7031-10.4648a2.9465,2.9465,0,0,0-2.6836,1.6406,5.9537,5.9537,0,0,0-.7617,3.0234,3.6333,3.6333,0,0,0,.9258,2.6485,2.4686,2.4686,0,0,0,1.8164.7851,2.8448,2.8448,0,0,0,2.0976-.8906,3.7666,3.7666,0,0,0,1.0547-2.66Q289.249,164.5972,286.6357,164.5855Z" />
                <path class="cls-3"
                    d="M303.7217,167.5151q0,.8438.0117,2.5313t.0117,2.5312q0,.2579.041.7852t.041.7852a1.0883,1.0883,0,0,1-.34.8261,1.1637,1.1637,0,0,1-.8321.3223q-.9022,0-1.1484-1.1133a7.2117,7.2117,0,0,1-3.375.7617,4.4517,4.4517,0,0,1-2.543-.68,3.0408,3.0408,0,0,1-1.3242-2.1914,38.4391,38.4391,0,0,1-.457-5.5312,21.895,21.895,0,0,1,.3516-3.6563,1.0481,1.0481,0,0,1,1.1132-1.0195,1.1786,1.1786,0,0,1,.8438.3223,1.0883,1.0883,0,0,1,.34.8261,13.6552,13.6552,0,0,1-.17,1.7227,13.764,13.764,0,0,0-.17,1.8047q0,1.9571.1289,3.3516a11.5542,11.5542,0,0,0,.3867,2.2382,3.9251,3.9251,0,0,0,.7617.3223,2.5861,2.5861,0,0,0,.7383.1113,11.9653,11.9653,0,0,0,3.3164-.5039l-.0117-2.3789-.0234-2.2734a37.6234,37.6234,0,0,1,.2226-4.3946,1.0576,1.0576,0,0,1,1.1367-1.0781,1.1674,1.1674,0,0,1,.8438.3281,1.0212,1.0212,0,0,1,.3164.82Z" />
                <path class="cls-3"
                    d="M314.48,164.3745q-.2461,0-.58-.0234t-.58-.0235q-.27,0-1.5937.1758l.2226,6.9258.0117.5156.0118.5977q.0468,2.5664-1.2305,2.5664a1.1923,1.1923,0,0,1-.8145-.3047.9735.9735,0,0,1-.3457-.7617q0-.4453.0352-1.3359t.0351-1.336l-.2343-6.8437q-.8554-.0353-2.6016-.1993a1.0629,1.0629,0,0,1-1.043-1.16,1.2067,1.2067,0,0,1,.3164-.8555,1.0563,1.0563,0,0,1,.8086-.34l2.461.1992q0-.5976-.0528-1.6t-.0527-1.4473a1.0745,1.0745,0,0,1,.34-.8144,1.1639,1.1639,0,0,1,.8321-.3223q1.0547,0,1.23,1.7227.0353.4335.0352,1.0429l-.0234.68-.0118.7266q1.4532-.1875,1.6641-.1875a6.68,6.68,0,0,1,1.5938.1172,1.0292,1.0292,0,0,1,.7148,1.1015,1.1731,1.1731,0,0,1-.3223.85A1.0975,1.0975,0,0,1,314.48,164.3745Z" />
                <path class="cls-3"
                    d="M340.0029,175.3316a1.0538,1.0538,0,0,1-1.125-1.02q-.2109-1.2891-.4219-3.6328l-.3984-3.6328a7.9542,7.9542,0,0,0-.3984-1.582q-.3985-1.0548-.8672-1.0547a4.1,4.1,0,0,0-1.6172.7383,6.6651,6.6651,0,0,0-1.4766,1.09q-.0117,1.1016.0586,2.2031l.3516,3.1289a26.548,26.548,0,0,1,.2226,3.0586,1.1735,1.1735,0,0,1-.3222.85,1.1889,1.1889,0,0,1-1.6524,0,1.1735,1.1735,0,0,1-.3222-.85q0-1.418-.2872-4.1894T331.46,166.25a4.34,4.34,0,0,0-.3515-1.9336,5.8549,5.8549,0,0,0-1.6641,1.2188l-1.3828,1.5469a7.0731,7.0731,0,0,1-.5977.7382q0,.7032-.1289,2.0743t-.1289,2.0273a6.0781,6.0781,0,0,0,.1114.9844,6.0015,6.0015,0,0,1,.1113.914,1.0547,1.0547,0,0,1-.3574.8086,1.1991,1.1991,0,0,1-.8379.3282q-1.3242,0-1.3242-3.0118,0-.703.1289-2.0976t.1289-2.0977q0-.621-.1114-1.8633t-.1113-1.875q0-2.66,1.1953-2.66a1.1425,1.1425,0,0,1,.8379.3984,1.2346,1.2346,0,0,1,.3809.8672,6.2154,6.2154,0,0,1-.0586.6914,6.2344,6.2344,0,0,0-.0586.7149l.0234,1.23a7.0393,7.0393,0,0,1,1.793-2.2675,3.4041,3.4041,0,0,1,2.0156-1.0137,2.5311,2.5311,0,0,1,2.5313,1.8281,4.1783,4.1783,0,0,1,1.5351-1.2832,4.6543,4.6543,0,0,1,2.0391-.4277,2.6878,2.6878,0,0,1,2.6719,2.1093,30.6151,30.6151,0,0,1,.48,3.293q.3282,2.0157.8438,6.7149a.9451.9451,0,0,1-.3164.7968A1.2079,1.2079,0,0,1,340.0029,175.3316Z" />
                <path class="cls-3"
                    d="M353.9834,163.9058l-4.0547,8.7656q-1.5,3.1992-2.2969,5.3555l-.7734,2.2734a1.0873,1.0873,0,0,1-1.0547.8438,1.2264,1.2264,0,0,1-.85-.3223,1.0365,1.0365,0,0,1-.3574-.8027q0-1.172,2.5312-6.7852l-4.1953-8.0742-.5274-.8555a1.8951,1.8951,0,0,1-.3164-.9023,1.2541,1.2541,0,0,1,1.1954-1.2071.9619.9619,0,0,1,.832.41,46.0312,46.0312,0,0,1,4.2773,7.875l1.7344-4.043q.9375-2.0976,1.8047-3.6094a1.1151,1.1151,0,0,1,.9844-.6562,1.2178,1.2178,0,0,1,.85.34,1.063,1.063,0,0,1,.3691.8086A1.4192,1.4192,0,0,1,353.9834,163.9058Z" />
                <path class="cls-3"
                    d="M377.456,163.8706q-.9139,3.82-2.3906,8.6367a8.2927,8.2927,0,0,1-1.09,2.1914,1.2443,1.2443,0,0,1-1.1133.6094q-1.2774-.0234-1.9922-3.1758-.2344-1.0077-.4805-2.7422l-.3867-2.6132-.9609,2.2382-1.7813,4.84a1.4394,1.4394,0,0,1-.4453.68,1.2256,1.2256,0,0,1-1.125.7031q-.8906.0351-1.7227-3.4922-.4218-1.8164-.8437-4.9219l-.2813-1.7578a12.7586,12.7586,0,0,1-.1523-1.7695,1.0658,1.0658,0,0,1,.3457-.8145,1.1846,1.1846,0,0,1,.8379-.3222,1.0619,1.0619,0,0,1,1.1016.9726,14.176,14.176,0,0,1,.2461,1.711l.1757,1.7226.6914,5.2617q1.3008-3.6093,2.6954-8.32.3867-1.3008,1.3476-1.3007.9258,0,1.2539,1.4531.3046,1.371.7617,4.2187.4688,2.9532.8321,4.6055l.8554-3.1875,1.5118-6.3867a.9118.9118,0,0,1,1.0078-.7149,1.2228,1.2228,0,0,1,.8554.334,1.0525,1.0525,0,0,1,.3633.8028A5.14,5.14,0,0,1,377.456,163.8706Z" />
                <path class="cls-3"
                    d="M384.2412,175.05a4.5677,4.5677,0,0,1-3.3867-1.4531A6.2323,6.2323,0,0,1,379.19,169.25a7.58,7.58,0,0,1,1.3359-4.664,5.2445,5.2445,0,0,1,4.57-2.3789,3.8522,3.8522,0,0,1,3.5507,2.1445,8.2334,8.2334,0,0,1,.9258,4.1719,7.5822,7.5822,0,0,1-1.3594,4.4414A4.6655,4.6655,0,0,1,384.2412,175.05Zm.7031-10.4648a2.9465,2.9465,0,0,0-2.6836,1.6406,5.9537,5.9537,0,0,0-.7617,3.0234,3.6333,3.6333,0,0,0,.9258,2.6485,2.4686,2.4686,0,0,0,1.8164.7851,2.8448,2.8448,0,0,0,2.0976-.8906,3.7666,3.7666,0,0,0,1.0547-2.66Q387.5576,164.5972,384.9443,164.5855Z" />
                <path class="cls-3"
                    d="M401.5849,165.6987q-.0821,1.4649-1.1718,1.4649-1.0078,0-1.0079-1.16,0-.2226-.0351-.82l-.0352-.9844a6.1713,6.1713,0,0,0-2.9648,1.043,5.6143,5.6143,0,0,0-1.7344,2.2969l.0235,6.4219a1.036,1.036,0,0,1-1.16,1.1836q-1.0312,0-1.0313-1.1836v-8.2266q0-.3867.0293-1.16t.0293-1.16q0-1.1836,1.0313-1.1836,1.1484,0,1.16,1.9453a7.044,7.044,0,0,1,4.9922-2.168,1.5807,1.5807,0,0,1,1.418.7149,3.9786,3.9786,0,0,1,.4688,2.1562Q401.5967,165.4878,401.5849,165.6987Z" />
                <path class="cls-3"
                    d="M413.7607,174.8394a1.0888,1.0888,0,0,1-.9961-.68,19.7859,19.7859,0,0,0-1.84-2.8008l-2.0742-2.8242q-.68.5391-2.1094,1.5117-.129,1.8163-.1289,3.5391a1.1683,1.1683,0,0,1-.3223.8554,1.1077,1.1077,0,0,1-.8262.3282q-1.1835,0-1.1836-1.5938,0-.9726.1348-2.9121t.1348-2.9121q0-1.7812.0527-4.0723t.0527-4.0488q0-.5274-.0527-1.2422t-.0527-1.2422a1.169,1.169,0,0,1,.3222-.8555,1.2043,1.2043,0,0,1,1.6524,0,1.1691,1.1691,0,0,1,.3223.8555q0,.5391.0585,1.2715t.0586,1.2715l-.082,3.7734q-.0587,2.0391-.0351,4.0781a32.6832,32.6832,0,0,0,3.07-2.6718l2.5781-2.66a1.1805,1.1805,0,0,1,2.0273.8086,1.19,1.19,0,0,1-.34.7852,42.0768,42.0768,0,0,1-3.5508,3.6211l2.5547,3.48q1.7929,2.4492,1.793,3.1875a1.0629,1.0629,0,0,1-.3692.8086A1.2175,1.2175,0,0,1,413.7607,174.8394Z" />
            </g>
        </g>
    </g>
</svg>